<?xml version="1.0" encoding="utf-8"?>
<!-- Generator: Adobe Illustrator 22.0.1, SVG Export Plug-In . SVG Version: 6.00 Build 0)  -->
<svg version="1.1" id="Capa_1" xmlns="http://www.w3.org/2000/svg" xmlns:xlink="http://www.w3.org/1999/xlink" x="0px" y="0px"
	 viewBox="0 0 64 64" style="enable-background:new 0 0 64 64;" xml:space="preserve">
<g>
	<path d="M61.3,35.4L36.4,10.5c-1.3-1.3-3.1-2-4.9-2c-0.2,0-0.3,0-0.5,0l-18,1.2c-1.9,0.1-3.5,1.7-3.6,3.6L9,19.7
		c-0.9-0.5-1.8-1.2-2.6-2c-1.9-1.9-3.1-4.3-3.4-6.7C2.9,8.7,3.5,6.6,5,5.2C8,2.2,13.6,2.8,17.5,6.7c0.6,0.6,1.7,0.6,2.3,0
		s0.6-1.7,0-2.3C14.7-0.8,6.9-1.5,2.6,2.9C0.5,5-0.5,8-0.2,11.4c0.3,3.2,1.9,6.3,4.3,8.8c1.4,1.4,3,2.5,4.7,3.2l-0.5,8
		c-0.1,2,0.6,4,2,5.4l24.9,24.9c1.6,1.6,3.7,2.4,5.9,2.4l0,0c2.2,0,4.3-0.9,5.9-2.4l14.4-14.4c1.6-1.6,2.4-3.7,2.4-5.9
		C63.7,39,62.9,37,61.3,35.4z M58.9,44.8L44.5,59.2c-0.9,0.9-2.2,1.5-3.5,1.5l0,0c-1.3,0-2.6-0.5-3.5-1.5L12.6,34.4
		c-0.7-0.7-1.1-1.8-1.1-2.8l0.5-7.2c0.3,0,0.6,0.1,0.8,0.1c0.4,0,0.8,0.1,1.2,0.1c2.8,0,5.4-1,7.2-2.9c0.6-0.6,0.6-1.7,0-2.3
		s-1.7-0.6-2.3,0c-1.4,1.4-3.5,2.1-5.8,1.9c-0.3,0-0.6-0.1-0.9-0.1l0.5-7.4c0-0.3,0.3-0.5,0.6-0.6l18-1.2c0.1,0,0.2,0,0.2,0
		c1,0,1.9,0.4,2.6,1.1l24.8,24.8c0.9,0.9,1.5,2.2,1.5,3.5C60.4,42.6,59.9,43.9,58.9,44.8z"/>
</g>
</svg>
