<?xml version="1.0" encoding="utf-8"?>
<!-- Generator: Adobe Illustrator 22.0.1, SVG Export Plug-In . SVG Version: 6.00 Build 0)  -->
<svg version="1.1" id="Calque_1" xmlns="http://www.w3.org/2000/svg" xmlns:xlink="http://www.w3.org/1999/xlink" x="0px" y="0px"
	 viewBox="0 0 64 64" style="enable-background:new 0 0 64 64;" xml:space="preserve">
<title>tron</title>
<g id="tron">
	<path d="M10.9,1h42.5c1.5,0,3,0.2,4.6,1c1.9,0.9,2.9,2.3,3.6,3.3c0.1,0.1,0.1,0.2,0.2,0.2c0.8,1.5,1.2,3,1.2,4.7
		c0,1.6-0.4,3.4-1.2,4.9c0,0,0,0,0,0L34.8,61.4c-0.6,1-1.7,1.6-2.9,1.6c-1.2,0-2.3-0.6-2.9-1.7L2.8,15.3c0,0,0,0,0,0
		c-0.6-1-1.5-2.5-1.7-4.5C0.9,8.9,1.3,7.1,2.2,5.5c0.9-1.6,2.3-2.9,4-3.6C7.9,1,9.8,1,10.9,1z M28.7,7.6H10.9C9.7,7.6,9.3,7.7,9,7.8
		c-0.4,0.2-0.8,0.5-1,1c-0.2,0.4-0.4,0.9-0.3,1.4c0,0.3,0.1,0.6,0.8,1.7c0,0,0,0,0,0.1l20.2,35.4V7.6z M35.3,7.6v39.9L56,11.9
		c0.2-0.4,0.4-1,0.4-1.7c0-0.5-0.1-1-0.3-1.4c-0.2-0.4-0.4-0.5-0.5-0.7C55.4,8,55.3,8,55.2,7.9c-0.5-0.2-1-0.3-1.8-0.3H35.3z"/>
</g>
</svg>
