<?xml version="1.0" encoding="utf-8"?>
<!-- Generator: Adobe Illustrator 22.0.1, SVG Export Plug-In . SVG Version: 6.00 Build 0)  -->
<svg version="1.1" id="Слой_1" xmlns="http://www.w3.org/2000/svg" xmlns:xlink="http://www.w3.org/1999/xlink" x="0px" y="0px"
	 viewBox="0 0 32 32" style="enable-background:new 0 0 32 32;" xml:space="preserve">
<g>
	<g>
		<path d="M5.5,16.8c-0.2,0-0.3-0.1-0.3-0.3l0,0c0-1.1,0.2-2.3,0.5-3.3C5.8,13,5.9,12.9,6.1,13c0.2,0.1,0.3,0.2,0.2,0.4
			c-0.3,1-0.5,2.1-0.5,3.1C5.8,16.7,5.7,16.8,5.5,16.8z M19.2,26.2c-1,0.3-2.1,0.5-3.1,0.5c-0.2,0-0.3,0.1-0.3,0.3
			c0,0.2,0.1,0.3,0.3,0.3l0,0c1.1,0,2.3-0.2,3.3-0.5c0.2-0.1,0.3-0.2,0.2-0.4C19.5,26.2,19.3,26.1,19.2,26.2z M6.3,19.7
			c-0.1-0.2-0.2-0.3-0.4-0.2c-0.2,0.1-0.3,0.2-0.2,0.4c0.4,1.1,0.9,2.1,1.5,3C7.3,23,7.4,23,7.5,23c0.1,0,0.1,0,0.2-0.1
			s0.2-0.3,0.1-0.5C7.1,21.6,6.7,20.7,6.3,19.7z M19.1,6.8c1,0.3,2,0.8,2.8,1.4c0.1,0,0.1,0.1,0.2,0.1s0.2,0,0.3-0.1
			c0.1-0.1,0.1-0.4-0.1-0.5c-0.9-0.7-1.9-1.2-3-1.5c-0.2-0.1-0.4,0-0.4,0.2S18.9,6.7,19.1,6.8z M7.5,10.7c0.1,0,0.2,0,0.3-0.1
			C8.4,9.7,9.2,9,10,8.3c0.1-0.1,0.2-0.3,0.1-0.5C10,7.7,9.8,7.6,9.6,7.7c-0.9,0.7-1.7,1.5-2.4,2.4c-0.1,0.1-0.1,0.3,0.1,0.5
			C7.4,10.6,7.4,10.7,7.5,10.7z M12.7,6.8h0.1c1-0.3,2.1-0.5,3.1-0.5c0.2,0,0.3-0.1,0.3-0.3c0-0.2-0.1-0.3-0.3-0.3l0,0
			c-1.1,0-2.3,0.2-3.3,0.5c-0.2,0.1-0.3,0.2-0.2,0.4S12.6,6.8,12.7,6.8z M12.9,26.2c-1-0.3-2-0.8-2.8-1.4c-0.1-0.1-0.4-0.1-0.5,0.1
			c-0.1,0.1-0.1,0.4,0.1,0.5c0.9,0.7,1.9,1.2,3,1.5h0.1c0.1,0,0.3-0.1,0.3-0.2C13.1,26.4,13,26.2,12.9,26.2z M24.2,22.5
			c-0.6,0.9-1.4,1.6-2.2,2.3c-0.1,0.1-0.2,0.3-0.1,0.5c0.1,0.1,0.2,0.1,0.3,0.1c0.1,0,0.1,0,0.2-0.1c0.9-0.7,1.7-1.5,2.4-2.4
			c0.1-0.1,0.1-0.3-0.1-0.5C24.5,22.3,24.3,22.3,24.2,22.5z M26.5,16.2c-0.2,0-0.3,0.2-0.3,0.3c0,1.1-0.2,2.1-0.5,3.1
			c-0.1,0.2,0,0.4,0.2,0.4H26c0.1,0,0.3-0.1,0.3-0.2c0.4-1.1,0.5-2.2,0.5-3.3l0,0C26.8,16.3,26.7,16.2,26.5,16.2z M25.7,13.3
			c0,0.1,0.2,0.2,0.3,0.2h0.1c0.2-0.1,0.3-0.2,0.2-0.4c-0.4-1.1-0.9-2.1-1.6-3c-0.1-0.1-0.3-0.2-0.5-0.1c-0.1,0.1-0.2,0.3-0.1,0.5
			C24.9,11.4,25.3,12.3,25.7,13.3z M29,16.5c0,7.2-5.8,13-13,13s-13-5.8-13-13s5.8-13,13-13S29,9.3,29,16.5z M27.7,16.5
			C27.7,10,22.5,4.8,16,4.8S4.3,10,4.3,16.5S9.5,28.2,16,28.2S27.7,23,27.7,16.5z M17.1,17c-0.2-0.1-0.5-0.1-1-0.1h-1v1.7
			c0,0.2,0,0.4,0,0.4c0,0.1,0.1,0.1,0.1,0.1s0.2,0,0.4,0h0.6c0.3,0,0.6,0,0.8-0.1c0.2-0.1,0.4-0.2,0.6-0.4c0.2-0.2,0.2-0.4,0.2-0.7
			c0-0.2-0.1-0.4-0.2-0.6C17.5,17.2,17.3,17.1,17.1,17z M25.4,16.5c0,5.2-4.2,9.4-9.4,9.4c-5.2,0-9.4-4.2-9.4-9.4
			c0-5.2,4.2-9.4,9.4-9.4C21.2,7.1,25.4,11.3,25.4,16.5z M19.8,18.2c0-0.3-0.1-0.7-0.2-0.9s-0.4-0.5-0.7-0.7
			c-0.2-0.1-0.5-0.2-0.8-0.3c0.3-0.1,0.6-0.3,0.8-0.4c0.2-0.2,0.4-0.4,0.5-0.6s0.2-0.5,0.2-0.7c0-0.4-0.1-0.7-0.3-1
			s-0.5-0.5-0.9-0.7c-0.2-0.1-0.3-0.1-0.5-0.1v-1.4h-1.3v1.3h-0.9v-1.3h-1.3v1.3h-2v1.1h0.3c0.2,0,0.3,0,0.4,0.1s0.1,0.1,0.2,0.2
			c0,0.1,0,0.2,0,0.4v4.4c0,0.2,0,0.4,0,0.4c0,0.1-0.1,0.1-0.2,0.2c-0.1,0-0.2,0.1-0.4,0.1h-0.3v1.1h2V22h1.3v-1.3h0.8h0.1V22h1.3
			v-1.4c0.2,0,0.4-0.1,0.6-0.2c0.5-0.2,0.8-0.4,1.1-0.8C19.7,19,19.8,18.6,19.8,18.2z M16.9,15.6c0.2-0.1,0.4-0.2,0.5-0.3
			c0.1-0.2,0.2-0.3,0.2-0.5s-0.1-0.4-0.2-0.5S17.1,14.1,17,14c-0.2-0.1-0.5-0.1-1-0.1h-0.9v1.9H16C16.4,15.8,16.7,15.7,16.9,15.6z"
			/>
	</g>
</g>
</svg>
