<?xml version="1.0" encoding="utf-8"?>
<!-- Generator: Adobe Illustrator 22.0.1, SVG Export Plug-In . SVG Version: 6.00 Build 0)  -->
<svg version="1.1" id="Слой_1" xmlns="http://www.w3.org/2000/svg" xmlns:xlink="http://www.w3.org/1999/xlink" x="0px" y="0px"
	 viewBox="0 0 20 20" style="enable-background:new 0 0 20 20;" xml:space="preserve">
<g>
	<path d="M7.2,3.4C5,3.4,3.5,4.7,3.5,7.1v5.6c0,2.4,1.5,3.8,3.8,3.8h5.6c2.2,0,3.8-1.5,3.8-3.8v-2h1.1v2.5c0,2.4-2,4.4-4.4,4.4H6.7
		c-2.4,0-4.4-2-4.4-4.4V6.6c0-2.4,2-4.4,4.4-4.4h2.5v1.1H7.2L7.2,3.4z"/>
	<path d="M17.8,6.2h-2.9v2.9c0,0.3-0.3,0.5-0.5,0.5s-0.5-0.3-0.5-0.5V6.2H11c-0.3,0-0.5-0.3-0.5-0.5c0-0.3,0.3-0.5,0.5-0.5h2.9V2.3
		c0-0.3,0.3-0.5,0.5-0.5s0.5,0.3,0.5,0.5v2.9h2.9c0.3,0,0.5,0.3,0.5,0.5C18.4,5.9,18.1,6.2,17.8,6.2"/>
</g>
</svg>
