<?xml version="1.0" encoding="utf-8"?>
<!-- Generator: Adobe Illustrator 22.0.1, SVG Export Plug-In . SVG Version: 6.00 Build 0)  -->
<svg version="1.1" id="Layer_1" xmlns="http://www.w3.org/2000/svg" xmlns:xlink="http://www.w3.org/1999/xlink" x="0px" y="0px"
	 viewBox="0 0 32 32" style="enable-background:new 0 0 32 32;" xml:space="preserve">
<style type="text/css">
	.st0{fill:none;}
</style>
<path id="blockchain_1_" d="M26.9,28h-5c-0.2,0-0.3-0.1-0.3-0.3v-2.2h-3.6v2.2c0,0.2-0.1,0.3-0.3,0.3h-5c-0.2,0-0.3-0.1-0.3-0.3
	v-2.2H8.9v2.2c0,0.2-0.1,0.3-0.3,0.3h-5c-0.2,0-0.3-0.1-0.3-0.3v-5c0-0.2,0.1-0.3,0.3-0.3h2.2v-3.6H3.6c-0.2,0-0.3-0.1-0.3-0.3v-5
	c0-0.2,0.1-0.3,0.3-0.3h2.2V9.6H3.6c-0.2,0-0.3-0.1-0.3-0.3v-5C3.3,4.1,3.4,4,3.6,4h5c0.2,0,0.3,0.1,0.3,0.3v2.2h3.6V4.3
	c0-0.2,0.1-0.3,0.3-0.3h5c0.2,0,0.3,0.1,0.3,0.3v2.2h3.6V4.3c0-0.2,0.1-0.3,0.3-0.3h5c0.2,0,0.3,0.1,0.3,0.3v5
	c0,0.2-0.1,0.3-0.3,0.3h-2.2v3.6h2.2c0.2,0,0.3,0.1,0.3,0.3v5c0,0.2-0.1,0.3-0.3,0.3h-2.2v3.6h2.2c0.2,0,0.3,0.1,0.3,0.3v5
	C27.3,27.9,27.1,28,26.9,28z M22.2,27.4h4.4V23h-4.4V27.4z M13,27.4h4.4V23H13C13,23,13,27.4,13,27.4z M3.9,27.4h4.4V23H3.9V27.4z
	 M18.1,24.9h3.6v-2.2c0-0.2,0.1-0.3,0.3-0.3h2.2v-3.6h-2.2c-0.2,0-0.3-0.1-0.3-0.3v-2.2h-3.6v2.2c0,0.2-0.1,0.3-0.3,0.3h-2.2v3.6
	h2.2c0.2,0,0.3,0.1,0.3,0.3V24.9z M8.9,24.9h3.6v-2.2c0-0.2,0.1-0.3,0.3-0.3h2.2v-3.6h-2.2c-0.2,0-0.3-0.1-0.3-0.3v-2.2H8.9v2.2
	c0,0.2-0.1,0.3-0.3,0.3H6.4v3.6h2.2c0.2,0,0.3,0.1,0.3,0.3V24.9z M24.4,18.2h2.2v-4.4h-4.4v4.4H24.4z M15.3,18.2h2.2v-4.4H13v4.4
	H15.3z M6.1,18.2h2.2v-4.4H3.9v4.4H6.1z M18.1,15.7h3.6v-2.2c0-0.2,0.1-0.3,0.3-0.3h2.2V9.6h-2.2c-0.2,0-0.3-0.1-0.3-0.3V7.1h-3.6
	v2.2c0,0.2-0.1,0.3-0.3,0.3h-2.2v3.6h2.2c0.2,0,0.3,0.1,0.3,0.3V15.7z M8.9,15.7h3.6v-2.2c0-0.2,0.1-0.3,0.3-0.3h2.2V9.6h-2.2
	c-0.2,0-0.3-0.1-0.3-0.3V7.1H8.9v2.2c0,0.2-0.1,0.3-0.3,0.3H6.4v3.6h2.2c0.2,0,0.3,0.1,0.3,0.3V15.7z M24.4,9h2.2V4.6h-4.4V9
	C22.2,9,24.4,9,24.4,9z M15.3,9h2.2V4.6H13V9C13,9,15.3,9,15.3,9z M6.1,9h2.2V4.6H3.9V9C3.9,9,6.1,9,6.1,9z"/>
<rect id="_Transparent_Rectangle" class="st0" width="32" height="32"/>
</svg>
