<?xml version="1.0" encoding="utf-8"?>
<!-- Generator: Adobe Illustrator 22.0.1, SVG Export Plug-In . SVG Version: 6.00 Build 0)  -->
<svg version="1.1" id="Capa_1" xmlns="http://www.w3.org/2000/svg" xmlns:xlink="http://www.w3.org/1999/xlink" x="0px" y="0px"
	 viewBox="0 0 20 20" style="enable-background:new 0 0 20 20;" xml:space="preserve">
<g>
	<path d="M14.5,6.8h-2.7v1.6h2.7c0.8,0,1.4,0.4,1.4,0.7v7c0,0.3-0.6,0.7-1.4,0.7h-10c-0.8,0-1.4-0.4-1.4-0.7v-7
		c0-0.3,0.6-0.7,1.4-0.7h2.7V6.8H4.6c-1.7,0-3,1-3,2.3v7c0,1.3,1.3,2.3,3,2.3h10c1.7,0,3-1,3-2.3v-7C17.5,7.8,16.2,6.8,14.5,6.8z"/>
	<path d="M12,10.1c-0.2,0-0.4,0.1-0.5,0.2l-1,1V7.9V6.4V3.3c0-0.5-0.3-0.8-0.8-0.8S8.8,2.8,8.8,3.3v3v1.6v3.5l-1.1-1.1
		c-0.1-0.1-0.3-0.2-0.5-0.2s-0.4,0.1-0.5,0.2c-0.3,0.3-0.3,0.8,0,1.1L9,13.7c0.1,0.1,0.3,0.2,0.5,0.2l0,0l0,0c0.2,0,0.4-0.1,0.5-0.2
		l2.3-2.3c0.3-0.3,0.3-0.8,0-1.1C12.4,10.1,12.2,10.1,12,10.1z"/>
</g>
</svg>
