<?xml version="1.0" encoding="utf-8"?>
<!-- Generator: Adobe Illustrator 22.0.1, SVG Export Plug-In . SVG Version: 6.00 Build 0)  -->
<svg version="1.1" id="Layer_1" xmlns="http://www.w3.org/2000/svg" xmlns:xlink="http://www.w3.org/1999/xlink" x="0px" y="0px"
	 viewBox="0 0 32 32" style="enable-background:new 0 0 32 32;" xml:space="preserve">
<g id="XMLID_830_">
	<g>
		<g>
			<path d="M22.8,22.5L22.8,22.5c-1.2,0-2.3-1-2.3-2.3v-3.8c0-1.2,1-2.3,2.3-2.3h5.9c0,0,0.1,0,0.1,0v-3.7c0-1-0.8-1.7-1.7-1.7H5.4
				c-1,0-1.7,0.8-1.7,1.7v15.7c0,1,0.8,1.7,1.7,1.7H27c1,0,1.7-0.8,1.7-1.7v-3.7c0,0-0.1,0-0.1,0H22.8z"/>
			<path d="M28.6,15.5h-5.9c-0.6,0-1,0.5-1,1v3.8c0,0.6,0.5,1,1,1h5.9c0.6,0,1-0.5,1-1v-3.8C29.7,15.9,29.2,15.5,28.6,15.5z
				 M24.8,19.8c-0.8,0-1.5-0.7-1.5-1.5c0-0.8,0.7-1.5,1.5-1.5s1.5,0.7,1.5,1.5C26.3,19.2,25.6,19.8,24.8,19.8z"/>
			<path d="M24,5.6c-0.4-1.2-1.7-1.8-2.8-1.4l-8.9,2.9h12.2L24,5.6z"/>
		</g>
	</g>
</g>
</svg>
