<?xml version="1.0" encoding="utf-8"?>
<!-- Generator: Adobe Illustrator 22.0.1, SVG Export Plug-In . SVG Version: 6.00 Build 0)  -->
<svg version="1.1"
	 id="Слой_1" shape-rendering="geometricPrecision" image-rendering="optimizeQuality" text-rendering="geometricPrecision"
	 xmlns="http://www.w3.org/2000/svg" xmlns:xlink="http://www.w3.org/1999/xlink" x="0px" y="0px" viewBox="0 0 32 32"
	 style="enable-background:new 0 0 32 32;" xml:space="preserve">
<path d="M5.8,5.3h4.7V3.2l0,0c0-0.3,0.1-0.6,0.4-0.8c0.3-0.3,0.6-0.4,0.8-0.4l0,0h9.3L21.2,2l7.2,7.2l0.1,0.4v16l0,0
	c0,0.3-0.1,0.7-0.4,0.8l0,0c-0.3,0.3-0.6,0.4-0.8,0.4l0,0h-4.7v2l0,0c0,0.3-0.1,0.7-0.4,0.8l0,0c-0.3,0.3-0.6,0.4-0.8,0.4l0,0H5.8
	l0,0c-0.3,0-0.6-0.1-0.8-0.4c-0.3-0.3-0.4-0.6-0.4-0.8l0,0V6.4l0,0c0-0.3,0.1-0.7,0.4-0.8C5.3,5.4,5.6,5.3,5.8,5.3L5.8,5.3L5.8,5.3z
	 M11.9,5.3h3.4l0.1,0.1l7.2,7.2l0.1,0.4v12.4h4.5V10.2h-5.6c-0.4,0-0.8-0.1-1-0.4c-0.3-0.3-0.4-0.7-0.4-1.1l0,0V3.3h-8.3V5.3
	L11.9,5.3z M20.4,2.6h0.6l7.2,7.2v0.4h-6.2c-0.8,0-1.4-0.7-1.4-1.6L20.4,2.6L20.4,2.6z M21.5,13.6h-5.6c-0.4,0-0.8-0.1-1-0.4
	c-0.3-0.3-0.4-0.7-0.4-1.1l0,0V6.5H6v22.2h15.5V13.6L21.5,13.6z"/>
</svg>
