<?xml version="1.0" encoding="utf-8"?>
<!-- Generator: Adobe Illustrator 22.0.1, SVG Export Plug-In . SVG Version: 6.00 Build 0)  -->
<svg version="1.1" id="Слой_1" xmlns="http://www.w3.org/2000/svg" xmlns:xlink="http://www.w3.org/1999/xlink" x="0px" y="0px"
	 viewBox="0 0 32 32" style="enable-background:new 0 0 32 32;" xml:space="preserve">
<path d="M27.7,3.3c0.2,0,0.5,0.1,0.8,0.4C28.8,4,29,4.4,29,4.5v8.2c0,0.2-0.1,0.5-0.4,0.8c-0.3,0.3-0.6,0.4-0.8,0.4h-8.2
	c-0.2,0-0.5-0.1-0.8-0.4c-0.3-0.3-0.4-0.7-0.4-0.9V4.6c0-0.2,0.1-0.5,0.5-0.8c0.3-0.3,0.6-0.5,0.8-0.5L27.7,3.3 M27.7,2.3h-8.2
	c-1.1,0-2.3,1.3-2.3,2.3v8.1c0,1.1,1.2,2.3,2.3,2.3h8.2c1.1,0,2.3-1.2,2.3-2.3V4.5C30,3.5,28.8,2.3,27.7,2.3L27.7,2.3z M12.5,18.5
	c0.2,0,0.5,0.1,0.8,0.4c0.3,0.3,0.4,0.6,0.4,0.8V28c0,0.2-0.1,0.5-0.4,0.8c-0.3,0.3-0.6,0.4-0.8,0.4H4.3c-0.2,0-0.5-0.1-0.8-0.4
	C3.2,28.5,3,28.1,3,27.9v-8.1c0-0.2,0.1-0.5,0.5-0.8c0.3-0.3,0.6-0.5,0.8-0.5H12.5 M12.5,17.5H4.3c-1.1,0-2.3,1.3-2.3,2.3v8.1
	c0,1.1,1.2,2.3,2.3,2.3h8.2c1.1,0,2.3-1.2,2.3-2.3v-8.2C14.8,18.7,13.6,17.5,12.5,17.5L12.5,17.5z M12.5,2.3H4.3
	C3.2,2.3,2,3.5,2,4.6v8.1C2,13.8,3.2,15,4.3,15h8.2c1.1,0,2.3-1.2,2.3-2.3V4.5C14.8,3.5,13.6,2.3,12.5,2.3z M27.7,17.5h-8.2
	c-1.1,0-2.3,1.3-2.3,2.3v8.1c0,1.1,1.2,2.3,2.3,2.3h8.2c1.1,0,2.3-1.2,2.3-2.3v-8.2C30,18.7,28.8,17.5,27.7,17.5L27.7,17.5z"/>
</svg>
