<?xml version="1.0" encoding="utf-8"?>
<!-- Generator: Adobe Illustrator 22.0.1, SVG Export Plug-In . SVG Version: 6.00 Build 0)  -->
<svg version="1.1" id="Capa_1" xmlns="http://www.w3.org/2000/svg" xmlns:xlink="http://www.w3.org/1999/xlink" x="0px" y="0px"
	 viewBox="0 0 28 28" style="enable-background:new 0 0 28 28;" xml:space="preserve">
<g>
	<path d="M6.5,19.5h4v-2.4h-4c-1.2,0-2.1-0.6-2.1-1.1V5.5c0-0.5,0.9-1.1,2.1-1.1h15.1c1.2,0,2.1,0.6,2.1,1.1V16
		c0,0.5-0.9,1.1-2.1,1.1h-4v2.4h4C24,19.5,26,18,26,16V5.5c0-2-2-3.5-4.5-3.5H6.5C4,2,2,3.6,2,5.5V16C2,18,4,19.5,6.5,19.5z"/>
	<path d="M10.4,14.6c0.3,0,0.6-0.1,0.8-0.3l1.5-1.5v5.1v2.4v4.5c0,0.7,0.5,1.2,1.2,1.2s1.2-0.5,1.2-1.2v-4.5v-2.4v-5.2l1.6,1.6
		c0.2,0.2,0.5,0.3,0.8,0.3s0.6-0.1,0.8-0.3c0.5-0.5,0.5-1.2,0-1.7L14.8,9c-0.2-0.2-0.5-0.3-0.8-0.3c0,0,0,0,0,0c0,0,0,0,0,0
		c-0.3,0-0.6,0.1-0.8,0.3l-3.5,3.5c-0.5,0.5-0.5,1.2,0,1.7C9.8,14.5,10.1,14.6,10.4,14.6z"/>
</g>
</svg>
