<?xml version="1.0" encoding="utf-8"?>
<!-- Generator: Adobe Illustrator 22.0.1, SVG Export Plug-In . SVG Version: 6.00 Build 0)  -->
<svg version="1.1" id="Capa_1" xmlns="http://www.w3.org/2000/svg" xmlns:xlink="http://www.w3.org/1999/xlink" x="0px" y="0px"
	 viewBox="0 0 24 24" style="enable-background:new 0 0 24 24;" xml:space="preserve">
<g>
	<g>
		<path d="M21.5,18.9l-3.6-3.6c0,0,0,0-0.1,0c-0.3,0.5-0.7,1-1.1,1.4c-0.4,0.4-0.9,0.8-1.4,1.1c0,0,0,0,0,0.1l3.6,3.6
			c0.7,0.7,1.9,0.7,2.6,0C22.2,20.8,22.2,19.6,21.5,18.9z"/>
		<path d="M16.2,4.4C13,1.2,7.7,1.2,4.4,4.4c-3.2,3.2-3.2,8.5,0,11.8c3.2,3.2,8.5,3.2,11.8,0C19.4,13,19.4,7.7,16.2,4.4z M6,14.7
			C3.6,12.3,3.6,8.4,6,6c2.4-2.4,6.3-2.4,8.7,0c2.4,2.4,2.4,6.3,0,8.7C12.3,17.1,8.4,17.1,6,14.7z"/>
		<path d="M7.7,11c-0.2-0.7-0.9-1.7-1.5-1.4C5.7,9.8,5.8,11,6,11.6c1,3,4.7,3.7,5.1,3.3C11.5,14.6,8.4,13.9,7.7,11z"/>
	</g>
</g>
</svg>
