<?xml version="1.0" encoding="utf-8"?>
<!-- Generator: Adobe Illustrator 22.0.1, SVG Export Plug-In . SVG Version: 6.00 Build 0)  -->
<svg version="1.1" id="Layer_1" xmlns="http://www.w3.org/2000/svg" xmlns:xlink="http://www.w3.org/1999/xlink" x="0px" y="0px"
	 viewBox="0 0 32 32" style="enable-background:new 0 0 32 32;" xml:space="preserve">
<title>upsell</title>
<path d="M9.5,4.7c3.6-3.6,9.4-3.6,13,0s3.6,9.4,0,13c-0.9,0.9-2,1.6-3.2,2.1v1.4h3.1c0.5,0,0.9,0.2,1.1,0.5c0.5,0.8-0.1,1.6-0.6,2.1
	c-1.5,1.6-5.1,4.9-5.9,5.8c-0.4,0.5-1.2,0.6-1.8,0.2c-0.1-0.1-0.1-0.1-0.2-0.2c-0.8-0.9-4.2-3.9-5.7-5.6c-0.5-0.6-1.3-1.4-0.7-2.3
	c0.2-0.3,0.6-0.5,1.1-0.5h3.1v-1.4c-4.7-1.8-7.1-7.2-5.2-11.9C7.9,6.7,8.6,5.6,9.5,4.7L9.5,4.7z M12.9,9.9c0-0.6,0.2-1.2,0.6-1.6
	c0.4-0.5,1-0.9,1.7-1l0.1-0.9H17l0.2,0.2l-0.1,0.6c0.7,0.1,1.3,0.2,2,0.4L18.7,10l-0.3,0.2c-0.4-0.3-0.8-0.6-1.3-0.8
	c-0.4-0.2-0.7-0.3-1.1-0.3c-0.2,0-0.4,0.1-0.4,0.2c0,0.1,0.1,0.2,0.2,0.3c0.2,0.1,0.5,0.2,0.7,0.3c0.4,0.1,0.8,0.3,1.1,0.5
	c0.3,0.2,0.6,0.4,0.8,0.7c0.2,0.4,0.4,0.8,0.3,1.2c0,0.6-0.2,1.2-0.6,1.6c-0.4,0.5-1,0.8-1.6,1l-0.1,1h-1.7l-0.3-0.2l0.1-0.6
	c-0.6-0.1-1.1-0.2-1.7-0.4l0.4-2.3l0.4-0.1c0.3,0.2,0.7,0.4,1.1,0.6c0.3,0.1,0.6,0.2,0.9,0.2c0.2,0,0.3-0.1,0.3-0.2
	c0-0.1-0.1-0.3-0.2-0.3c-0.2-0.1-0.5-0.2-0.7-0.3c-0.4-0.1-0.8-0.3-1.1-0.5c-0.3-0.2-0.6-0.4-0.8-0.7C13,10.7,12.9,10.3,12.9,9.9
	L12.9,9.9z M16,3.9c-4,0-7.2,3.2-7.2,7.2c0,4,3.2,7.2,7.2,7.2c4,0,7.2-3.2,7.2-7.2c0,0,0,0,0,0C23.2,7.2,20,3.9,16,3.9L16,3.9
	L16,3.9z"/>
</svg>
