<?xml version="1.0" encoding="utf-8"?>
<!-- Generator: Adobe Illustrator 22.0.1, SVG Export Plug-In . SVG Version: 6.00 Build 0)  -->
<svg version="1.1" id="Слой_1" xmlns="http://www.w3.org/2000/svg" xmlns:xlink="http://www.w3.org/1999/xlink" x="0px" y="0px"
	 viewBox="0 0 32 32" style="enable-background:new 0 0 32 32;" xml:space="preserve">
<g>
	<path d="M16.5,2C9,2,2.9,8.3,2.9,16c0,7.7,6.1,14,13.6,14c2.9,0,5.6-1,7.8-2.6c0.6-0.6,0.9-0.6,0.9-1.2l0-0.1
		c0-0.7-0.6-1.3-1.2-1.3c-0.4,0-0.7,0.2-0.9,0.4c-1.8,1.4-4.1,2.2-6.6,2.2c-6.2,0-11.2-5.1-11.2-11.5s5-11.5,11.2-11.5
		S27.7,9.6,27.7,16c0,1.7-0.4,3.4-1.1,4.9c0,0-0.3,0.6-0.6,1.4l0,0.1c0,0.7,0.6,1.3,1.2,1.3c0.6,0,1-0.4,1.2-0.9l0,0
		c1.1-2,1.7-4.3,1.7-6.7C30.1,8.3,24,2,16.5,2z M8.9,14.5c0,0.3,0.1,0.6,0.4,0.8c0.2,0.2,0.5,0.3,0.8,0.4l0,0c0,0,0.1,0,0.1,0
		l12.6,0c0.7,0,1.2-0.5,1.2-1.2c0-0.7-0.5-1.2-1.2-1.2l-9.8,0l1.4-1.4c0.5-0.5,0.5-1.2,0-1.6c-0.5-0.5-1.2-0.5-1.6,0l-3.4,3.5
		c-0.2,0.2-0.3,0.5-0.3,0.7l0,0C8.9,14.4,8.9,14.4,8.9,14.5L8.9,14.5L8.9,14.5z M18.5,22.5c0.5,0.5,1.2,0.5,1.7,0l3.5-3.5
		c0.2-0.2,0.3-0.5,0.3-0.7l0,0c0,0,0-0.1,0-0.1l0,0l0,0c0-0.3-0.1-0.6-0.4-0.8c-0.2-0.2-0.5-0.3-0.8-0.4l0,0c0,0-0.1,0-0.1,0
		l-12.6,0c-0.7,0-1.2,0.5-1.2,1.2c0,0.7,0.5,1.2,1.2,1.2l9.8,0l-1.4,1.4C18.1,21.3,18.1,22.1,18.5,22.5z"/>
</g>
</svg>
