<?xml version="1.0" encoding="utf-8"?>
<!-- Generator: Adobe Illustrator 22.0.1, SVG Export Plug-In . SVG Version: 6.00 Build 0)  -->
<svg version="1.1" id="Слой_1" xmlns="http://www.w3.org/2000/svg" xmlns:xlink="http://www.w3.org/1999/xlink" x="0px" y="0px"
	 viewBox="0 0 64 64" style="enable-background:new 0 0 64 64;" xml:space="preserve">
<g>
	<path d="M57.9,14.2L34.5,0.7c-1.4-0.8-3.4-0.8-5.1,0L6.1,14.2c-1.7,1.1-2.5,2.5-2.5,4.5v27c0,1.7,0.8,3.4,2.5,4.2l23.4,13.5
		c0.8,0.6,1.7,0.6,2.5,0.6c0.8,0,1.7-0.3,2.5-0.6L57.9,50c1.4-0.8,2.5-2.5,2.5-4.2v-27C60.4,16.8,59.3,15.3,57.9,14.2z M25,39.6
		c0,0.8-0.6,1.7-1.7,2c-0.3,0-0.3,0-0.6,0c-0.8,0-1.4-0.3-1.7-1.1L15.7,32v7.3c0,1.1-0.8,2.3-2.3,2.3s-2-0.6-2-2V24.6
		c0-0.8,0.6-1.7,1.7-2c0.8-0.3,2,0,2.5,0.8L21,32v-7.3c0-1.1,0.8-2.3,2.3-2.3c1.1,0,2.3,0.8,2.3,2.3L25,39.6L25,39.6z M35.9,30
		c1.1,0,2.3,0.8,2.3,2.3c0,1.4-0.8,2.3-2.3,2.3h-3.7v5.4c0,1.1-0.8,2.3-2.3,2.3c-1.1,0-2.3-0.8-2.3-2.3V24.6c0-1.1,0.8-2.3,2.3-2.3
		h5.9c1.1,0,2.3,0.8,2.3,2.3c0,1.1-0.8,2.3-2.3,2.3h-3.7V30H35.9z M50.3,26.9h-2v12.7c0,1.1-0.8,2.3-2.3,2.3c-1.1,0-2.3-0.8-2.3-2.3
		V26.9h-2c-1.1,0-2.3-0.8-2.3-2.3c0-1.1,0.8-2.3,2.3-2.3h8.4c1.1,0,2.3,0.8,2.3,2.3C52.6,26.1,51.7,26.9,50.3,26.9z"/>
</g>
</svg>
