<?xml version="1.0" encoding="utf-8"?>
<!-- Generator: Adobe Illustrator 22.0.1, SVG Export Plug-In . SVG Version: 6.00 Build 0)  -->
<svg version="1.1" id="Layer_1" xmlns="http://www.w3.org/2000/svg" xmlns:xlink="http://www.w3.org/1999/xlink" x="0px" y="0px"
	 viewBox="0 0 32 32" style="enable-background:new 0 0 32 32;" xml:space="preserve">
<title>upsell</title>
<path d="M22.5,27.3c-3.6,3.6-9.4,3.6-13,0s-3.6-9.4,0-13c0.9-0.9,2-1.6,3.2-2.1v-1.4H9.6c-0.5,0-0.9-0.2-1.1-0.5
	C8,9.6,8.6,8.8,9.1,8.2c1.5-1.6,5.1-4.9,5.9-5.8c0.4-0.5,1.2-0.6,1.8-0.2c0.1,0.1,0.1,0.1,0.2,0.2c0.8,0.9,4.2,3.9,5.7,5.6
	c0.5,0.6,1.3,1.4,0.7,2.3c-0.2,0.3-0.6,0.5-1.1,0.5h-3.1v1.4c4.7,1.8,7.1,7.2,5.2,11.9C24.1,25.3,23.4,26.4,22.5,27.3L22.5,27.3z
	 M19.1,22.1c0,0.6-0.2,1.2-0.6,1.6c-0.4,0.5-1,0.9-1.7,1l-0.1,0.9H15l-0.2-0.2l0.1-0.6c-0.7-0.1-1.3-0.2-2-0.4l0.4-2.4l0.3-0.2
	c0.4,0.3,0.8,0.6,1.3,0.8c0.4,0.2,0.7,0.3,1.1,0.3c0.2,0,0.4-0.1,0.4-0.2c0-0.1-0.1-0.2-0.2-0.3c-0.2-0.1-0.5-0.2-0.7-0.3
	c-0.4-0.1-0.8-0.3-1.1-0.5c-0.3-0.2-0.6-0.4-0.8-0.7c-0.2-0.4-0.4-0.8-0.3-1.2c0-0.6,0.2-1.2,0.6-1.6c0.4-0.5,1-0.8,1.6-1l0.1-1h1.7
	l0.3,0.2l-0.1,0.6c0.6,0.1,1.1,0.2,1.7,0.4l-0.4,2.3l-0.4,0.1c-0.3-0.2-0.7-0.4-1.1-0.6c-0.3-0.1-0.6-0.2-0.9-0.2
	c-0.2,0-0.3,0.1-0.3,0.2c0,0.1,0.1,0.3,0.2,0.3c0.2,0.1,0.5,0.2,0.7,0.3c0.4,0.1,0.8,0.3,1.1,0.5c0.3,0.2,0.6,0.4,0.8,0.7
	C19,21.3,19.1,21.7,19.1,22.1L19.1,22.1z M16,28.1c4,0,7.2-3.2,7.2-7.2c0-4-3.2-7.2-7.2-7.2c-4,0-7.2,3.2-7.2,7.2c0,0,0,0,0,0
	C8.8,24.8,12,28.1,16,28.1L16,28.1L16,28.1z"/>
</svg>
